<svg width="32" height="33" viewBox="0 0 32 33" version="1.1" xmlns="http://www.w3.org/2000/svg" xmlns:xlink="http://www.w3.org/1999/xlink" xmlns:figma="http://www.figma.com/figma/ns">
<title>circle-checkmark</title>
<desc>Created using Figma</desc>
<g id="Canvas" transform="translate(16 17)" figma:type="canvas">
<g id="circle-checkmark" style="mix-blend-mode:normal;" figma:type="frame">
<g id="Ellipse" style="mix-blend-mode:normal;" opacity="0.7" figma:type="ellipse">
<use xlink:href="#path0_fill" transform="translate(-16 -16.5)" fill="#EDF0F1" style="mix-blend-mode:normal;"/>
<mask id="mask0_outline_ins">
<use xlink:href="#path0_fill" fill="white" transform="translate(-16 -16.5)"/>
</mask>
<g mask="url(#mask0_outline_ins)">
<use xlink:href="#path1_stroke_2x" transform="translate(-16 -16.5)" fill="#AD59E1" style="mix-blend-mode:normal;"/>
</g>
</g>
<g id="Vector" style="mix-blend-mode:normal;" figma:type="vector">
<use xlink:href="#path2_fill" transform="translate(-9 -16.5)" fill="#AD59E1" style="mix-blend-mode:normal;"/>
</g>
</g>
</g>
<defs>
<path id="path0_fill" d="M 32 16C 32 24.8366 24.8366 32 16 32C 7.16344 32 0 24.8366 0 16C 0 7.16344 7.16344 0 16 0C 24.8366 0 32 7.16344 32 16Z"/>
<path id="path1_stroke_2x" d="M 30 16C 30 23.732 23.732 30 16 30L 16 34C 25.9411 34 34 25.9411 34 16L 30 16ZM 16 30C 8.26801 30 2 23.732 2 16L -2 16C -2 25.9411 6.05887 34 16 34L 16 30ZM 2 16C 2 8.26801 8.26801 2 16 2L 16 -2C 6.05887 -2 -2 6.05887 -2 16L 2 16ZM 16 2C 23.732 2 30 8.26801 30 16L 34 16C 34 6.05887 25.9411 -2 16 -2L 16 2Z"/>
<path id="path2_fill" fill-rule="evenodd" d="M 2.2902 10.8228L 8.47443 19.8315L 21.7102 0.550558C 21.8156 0.396783 21.9528 0.268303 22.1122 0.174116C 22.2715 0.0799294 22.4492 0.0223137 22.6328 0.00530484C 22.8163 -0.011704 23.0013 0.0123053 23.1748 0.0756507C 23.3483 0.138996 23.506 0.240146 23.637 0.372016C 23.85 0.599864 23.9775 0.896541 23.9973 1.21025C 24.0171 1.52396 23.9279 1.83478 23.7453 2.08843L 9.75978 22.4615C 9.61524 22.6719 9.42291 22.8437 9.19913 22.9623C 8.97535 23.0809 8.72672 23.1429 8.47436 23.1429C 8.22201 23.1429 7.97339 23.0809 7.7496 22.9623C 7.52582 22.8437 7.33349 22.6719 7.18895 22.4615L 0.254776 12.3607C 0.0721408 12.107 -0.0170755 11.7962 0.00270379 11.4824C 0.0224831 11.1687 0.150002 10.8719 0.362995 10.644C 0.494016 10.5121 0.651816 10.411 0.82534 10.3476C 0.998864 10.2842 1.18391 10.2602 1.36752 10.2773C 1.55113 10.2943 1.72885 10.352 1.88823 10.4462C 2.04762 10.5405 2.18481 10.669 2.2902 10.8228Z"/>
</defs>
</svg>
